<!-- Generator: Adobe Illustrator 19.2.1, SVG Export Plug-In  -->
<svg version="1.1"
	 xmlns="http://www.w3.org/2000/svg" xmlns:xlink="http://www.w3.org/1999/xlink" xmlns:a="http://ns.adobe.com/AdobeSVGViewerExtensions/3.0/"
	 x="0px" y="0px" width="691.31px" height="287.687px" viewBox="0 0 691.31 287.687"
	 style="enable-background:new 0 0 691.31 287.687;" xml:space="preserve">
<style type="text/css">
	.st0{fill:#00317F;}
</style>
<defs>
</defs>
<g>
	<g>
		<path class="st0" d="M6.204,219.184c9.165-14.794,18.307-29.158,19.39-30.828c2.3-3.563,4.694-8.468,12.303-21.94
			c7.609-13.471,7.685-16.349,16.86-16.033c7.636,0.261,7.636,0.261,14.516,6.869c7.435,7.151,8.762,8.833,10.714,11.824
			c1.953,2.99,11.4,28.439-4.818,33.85c-5.461,1.822-14.783,8.371-24.741,16.257C50.427,219.184,1.184,227.26,6.204,219.184"/>
		<path class="st0" d="M27.084,156.513c0,0-30.397-40.476,19.161-80.848c49.547-40.377,87.972-4.917,86.172-3.252
			c-1.795,1.669-53.534,49.949-61.654,48.72c-2.757-0.412-10.659,0.936-14.652,4.966c-5.488,5.547-7.005,12.053-7.005,12.053
			L27.084,156.513z"/>
		<path class="st0" d="M148.83,219.184c-1.615-7.31-3.045-13.776-3.742-16.92c-2.154-9.736,6.461-16.421,6.461-16.421
			c8.267-5.672,10.78-7.842,14.576-10.414c3.796-2.568,8.115-6.832,9.61-9.453c3.291-5.776-0.772-9.458-0.772-9.458
			c-0.43-1.268-0.136-4.139-0.625-5.51c-0.974-2.719-5.434,0.63-5.434,0.63c-3.563,2.16-7.076,3.411-7.076,3.411
			c-1.98,1.316-4.291,1.92-4.013,3.176c0.26,1.164,0.207,0.898,0.69,2.284c0.142,0.391,0.855,0.028,1.191-0.049
			c0.626-0.142,1.463-0.675,1.463-0.675c3.302-2.094,8.566-1.403,8.566-1.403c7.734,1.762-0.125,7.739-3.725,10.622
			c-3.595,2.882-18.59,4.78-18.59,4.78c-19.378,0-29.76-0.369-29.76-0.369c-11.52,0.946-22.935,3.16-22.935,3.16
			c4.639,1.654,14.473,14.565,16.93,17.676c1.578,1.99,9.448,14.832,15.838,24.932C127.483,219.184,149.554,226.538,148.83,219.184"
			/>
		<path class="st0" d="M157.598,150.372c0,0,0.61,2.11,1.061,2.616c0.293,0.348,1.016-0.239,1.664-0.468
			c2.246-0.793,2.834-0.75,5.841-2.137c2.8-1.289,5.803-3.062,6.537-3.65c1.54-1.224,4.406-2.986,2.475-6.135
			c-1.931-3.144-3.188-7.119-2.834-7.615c0.353-0.499,3.306-1.316,3.377-2.055c0.016-0.19,0.158-0.669-0.005-1.37
			c-0.099-0.391-1.214-0.456-1.719-0.495c-1.86-0.148-5.069-0.115-13.559,1.615c-0.13,0.022-0.168,0.01-0.566,0.163
			c-0.3,0.109,0.01,0.936,0.136,1.469c0.158,0.712,0.3,1.137,0.539,2.279c0.098,0.543,0.691,0.397,1.348,0.261
			c0,0,5.547-1.115,6.423,0.843c0.871,1.958,2.241,3.66,1.615,4.905C169.296,141.845,161.253,147.229,157.598,150.372"/>
		<path class="st0" d="M133.597,105.166c0,0-11.394,9.909-14.451,10.882c-0.413,0.125-0.239,0.109-0.816-0.016
			c-0.729-0.158-1.376-1.925-1.767-3.127c-0.163-0.527,0.664-0.984,1.218-1.511c2.649-2.48,9.219-7.55,11.318-9.437
			c2.1-1.882,3.954-3.399,6.973-3.242c3.013,0.153,13.602,0.137,18.514,4.215c4.911,4.074,4.911,4.074,7.098,6.369
			c1.255,1.311,2.86,1.844,2.605,3.247c-0.099,0.555-0.588,2.448-0.979,2.823c-0.387,0.37-0.93,0.62-1.637,0.679
			c-3.166,0.261-7.305-3.839-7.826,0.305c-0.387,3.089-0.778,6.342-2.279,6.94c-0.402,0.163-2.959-0.06-3.769-0.261
			c-1.175-0.3-1.431-2.094-1.947-3.405c-0.832-2.094-1.719-2.333-3.829-3.046c-2.241-0.75-4.667-1.06-6.614,0.196
			c-1.806,1.159-1.577,0.985-2.926,1.289c-0.914,0.213-1.452-1.968-2.823-3.861c-0.375-0.517,0.495-0.93,1.071-1.48
			c0,0,1.36-1.039,4.83-3.188C139.552,107.064,138.921,103.838,133.597,105.166"/>
		<path class="st0" d="M78.79,131.81c0,0-7.217,6.717-7.054,7.783c0.163,1.072,11.759,5.373,13.907,5.847
			c0,0,9.175,2.583,13.14,3.279c0,0,29.957,5.536,30.871,5.384c0.908-0.136,0.413,0.13,2.007-3.72
			c2.681-6.5,1.757-10.568,6.021-12.732c0,0,7.277-1.968,7.886-4.579c0.223-0.942-0.321-3.155-1.539-4.335
			c-0.256-0.256-5.118,0.941-8.359,3.111c0,0-14.065-2.839-21.685-5.189c0,0-11.786-3.97-7.424-8.213l30.588-26.563
			c0,0,2.371-3.742,8.081,1.534c0,0,1.632,1.392,3.481,0.967c0.843-0.195,1.632-0.876,2.534-2.06
			c2.959-3.873,8.452-8.839,6.287-11.699c0,0-1.79-1.872-2.676-2.1c-0.653-0.174-1.904,0.598-2.345,1.403l-15.082-13.444
			c0,0-2.17,1.452-2.507,3.649c0,0,4.58,4.552,7.424,7.13c3.774,3.421,6.097,5.221,6.668,5.977c0,0,0.701,0.843,0.593,1.115
			c-0.261,0.68-1.126,1.518-2.698,2.953c-0.397,0.37-1.392-1.37-1.838-1.567c0,0-5.874-4.922-10.562,0.235
			c-4.693,5.156-35.031,26.318-45.462,37.077L78.79,131.81z"/>
	</g>
	<g>
		<path class="st0" d="M635.535,0c2.97,4.219,2.356,5.665-2.752,7.185c-11.697,3.48-20.528,11.157-29.018,19.088
			c-21.724,20.295-39.798,43.551-57.714,66.914c-0.774,1.009-1.197,2.268-2.064,3.957c2.645,0.223,4.657,0.531,6.67,0.541
			c24.391,0.116,48.783,0.187,73.174,0.273c1.24,0.004,2.499-0.082,3.716,0.091c2.383,0.34,3.421,1.402,2.102,3.808
			c-1.746,3.183-4.099,4.805-8.104,4.993c-26.526,1.245-53.038,2.785-79.562,4.074c-4.821,0.234-8.122,1.972-10.843,5.913
			c-18.878,27.34-37.2,54.998-52.122,84.581c-4.429,8.78-8.157,17.891-12.131,26.881c-2.197,4.97-6.769,7.197-11.488,8.909
			c-3.312,1.201-5.236-1.215-3.991-5.06c1.386-4.278,3.086-8.489,5.006-12.574c15.607-33.2,33.694-65.071,55.244-95.07
			c3.934-5.477,2.561-10.163-3.767-13.2c-2.064-0.99-4.176-2.143-5.797-3.68c-3.303-3.134-2.326-7.213,2.23-8.023
			c6.178-1.099,12.526-1.717,18.805-1.753c4.348-0.025,6.674-1.097,9.332-4.806c9.287-12.965,19.022-25.676,29.298-37.93
			c11.759-14.023,24.209-27.512,36.534-41.085c1.911-2.105,4.545-3.885,7.211-5.012c6.391-2.7,13.008-4.901,19.511-7.358
			C626.1,1.247,627.07,0.559,628.092,0C630.573,0,633.054,0,635.535,0z"/>
		<path class="st0" d="M207.968,233.406c5.911-7.125,13.927-6.261,21.909-5.26c12.335,1.547,24.44,0.218,36.263-3.079
			c2.947-0.822,5.843-3.086,7.901-5.398c20.888-23.466,40.533-47.849,55.462-75.343c6.076-11.19,10.867-23.027,16.307-34.541
			c1.47-3.112,2.693-6.523,4.945-9.035c1.524-1.699,4.772-2.991,7.019-2.717c1.621,0.198,3.869,3.177,4.063,5.083
			c0.374,3.682,0.405,7.838-1.004,11.179c-15.16,35.931-35.781,68.497-64.84,95.716c-2.363,2.213-5.066,4.096-7.36,6.367
			c-1.354,1.34-2.214,3.142-3.296,4.736c1.86,0.919,3.707,2.597,5.582,2.626c8.783,0.133,17.582-0.001,26.357-0.4
			c8.649-0.393,17.267-1.419,25.916-1.789c7.285-0.312,14.194,1.321,20.276,5.437c4.46,3.019,4.405,6.14-0.641,8.162
			c-3.842,1.54-8.132,2.621-12.271,2.786c-11.831,0.471-23.689,0.239-35.53,0.523c-30.409,0.728-60.813,1.635-91.222,2.348
			c-5.792,0.136-11.6-0.292-15.834-5.011C207.968,234.999,207.968,234.202,207.968,233.406z"/>
		<path class="st0" d="M612.616,167.617c-17.172,0.442-33.643,0.944-50.117,1.258c-9.091,0.173-18.189-0.04-27.281,0.105
			c-1.436,0.023-3.424,0.625-4.195,1.639c-7.728,10.167-14.961,20.693-18.089,33.121c-1.176,4.674-1.723,9.772-1.147,14.518
			c1.036,8.534,8.181,12.931,17.459,11.544c12.742-1.905,24.523-6.527,35.956-12.079c0.859-0.417,1.712-1.191,2.569-1.191
			c1.422-0.001,2.844,0.491,4.266,0.775c-0.482,1.292-0.563,3.219-1.511,3.775c-7.249,4.255-14.499,8.567-22.092,12.195
			c-4.726,2.259-10.097,3.234-15.096,5.002c-12.517,4.427-34.004-12.251-31.483-28.794c4.063-26.669,18.892-47.248,37.296-66.118
			c9.565-9.807,20.351-18.222,32.86-24.387c8.178-4.03,14.039-3.522,19.342,1.411c5.725,5.325,7.805,14.495,4.722,21.238
			c-3.416,7.469-9.779,11.945-17.157,15.293c-3.399,1.542-6.897,2.88-10.351,4.311c0.053,0.352,0.106,0.703,0.16,1.055
			c14.371-0.759,28.863-0.7,43.058-2.647c6.365-0.873,12.142-5.752,18.169-8.842c0.958-0.491,1.787-1.222,2.755-1.688
			c2.089-1.006,4.167-1.457,5.887,0.694c1.647,2.06,0.967,3.822-0.48,5.743c-5.569,7.392-11.12,14.8-16.486,22.329
			c-2.918,4.094-5.45,8.442-8.157,12.676c0.35,0.32,0.699,0.641,1.049,0.961c1.298-1.103,2.741-2.084,3.871-3.328
			c13.784-15.171,29.849-27.76,47.142-39.001c6.071-3.946,12.337-6.008,19.76-4.212c5.063,1.225,6.039,3.103,2.797,7.046
			c-2.653,3.227-5.393,4.974-10.482,4.13c-3.853-0.639-8.906,0.901-12.302,3.089c-10.819,6.971-21.711,14.042-31.478,22.28
			c-16.666,14.057-29.622,31.248-41.504,49.199c-1.494,2.258-4.18,3.917-6.595,5.44c-2.621,1.652-5.531,2.907-8.399,4.154
			c-1.109,0.482-2.45,0.469-3.686,0.681c-0.238-1.369-0.914-2.84-0.602-4.079c0.37-1.47,1.566-2.756,2.449-4.095
			c12.511-18.984,24.976-37.994,34.615-58.55C611.159,172.028,611.862,169.642,612.616,167.617z M547.109,153.241
			c16.654-3.249,31.69-9.093,41.521-23.432c-2.908-2.833-4.825-3.332-8.786-1.548C566.943,134.074,556.871,143.418,547.109,153.241z
			"/>
		<path class="st0" d="M490.523,113.687c2.066,0,4.15-0.166,6.195,0.035c4.154,0.409,5.904,4.208,3.568,7.496
			c-4.48,6.305-10.982,8.65-18.385,6.381c-10.68-3.274-21.005-3.103-31.095,2.084c-15.21,7.819-29.794,16.483-41.918,28.469
			c-1.972,1.95-3.527,4.424-4.784,6.887c-2.927,5.733-2.578,11.237,2.009,16.209c5.393,5.845,10.812,11.672,16.066,17.632
			c2.121,2.406,4.149,4.987,5.669,7.767c3.983,7.287,2.918,12.536-4.465,16.536c-8.322,4.508-17.097,8.357-25.986,11.732
			c-5.001,1.899-10.61,2.376-15.987,3.261c-2.152,0.354-4.956,1.126-5.528-2.285c-0.453-2.706,2.582-5.748,5.466-6.476
			c6.85-1.73,13.848-3.237,20.35-5.842c7.315-2.931,9.123-8.003,4.89-14.456c-4.52-6.891-10.167-13.117-15.53-19.471
			c-7.074-8.382-7.803-15.507-1.839-24.678c6.135-9.434,15.118-16.045,24.646-21.931c17.57-10.854,35.309-21.499,55.957-26.224
			c6.785-1.553,13.732-2.446,20.605-3.64C490.458,113.343,490.491,113.515,490.523,113.687z"/>
		<path class="st0" d="M256.742,107.361c5.178-5.497,10.883-9.785,18.084-12.349c36.112-12.856,73.114-22.527,111.207-27.818
			c19.698-2.736,39.613-4.074,59.457-5.742c6.6-0.555,11.211,3.035,12.517,8.575c0.888,3.767-0.975,7.878-4.464,9.848
			c-3.77,2.129-6.948,1.809-10.27-1.774c-3.882-4.187-8.543-5.434-14.098-4.792c-9.273,1.071-18.551,2.107-27.84,3.047
			c-30.263,3.06-59.825,9.308-88.563,18.848c-13.585,4.51-26.794,10.079-40.136,15.26
			C264.739,113.531,261.379,113.01,256.742,107.361z"/>
	</g>
	<g>
		<g>
			<path d="M299.434,250.935l-4.372,3.877c-1.774-2.319-3.455-3.488-4.996-3.488c-0.777,0-1.415,0.249-1.93,0.701
				c-0.512,0.452-0.744,0.997-0.744,1.635c0,0.591,0.232,1.246,0.697,1.976c0.452,0.731,1.867,2.332,4.203,4.79
				c1.246,1.322,2.07,2.256,2.458,2.817c0.934,1.259,1.618,2.442,2.023,3.561c0.418,1.106,0.621,2.242,0.621,3.379
				c0,2.568-0.917,4.714-2.737,6.441c-1.821,1.741-4.156,2.598-7.003,2.598c-4.355,0-7.903-2.053-10.624-6.179l4.604-3.701
				c1.85,2.817,3.857,4.232,6.02,4.232c1.027,0,1.884-0.342,2.585-1.013c0.698-0.668,1.056-1.462,1.056-2.395
				c0-0.747-0.216-1.495-0.651-2.272c-0.422-0.761-1.635-2.209-3.658-4.339c-2.116-2.242-3.518-3.937-4.186-5.073
				c-0.904-1.558-1.339-3.066-1.339-4.558c0-1.977,0.638-3.734,1.93-5.305c1.618-1.947,3.81-2.927,6.564-2.927
				C293.723,245.692,296.895,247.45,299.434,250.935z"/>
			<path d="M304.752,254.811h5.744l-1.635,12.072c-0.186,1.339-0.266,2.332-0.266,2.987c0,1.06,0.359,1.93,1.09,2.631
				c0.714,0.714,1.648,1.073,2.817,1.073c1.492,0,2.644-0.452,3.438-1.385c0.824-0.904,1.399-2.754,1.774-5.554l1.618-11.823h5.741
				l-1.698,12.694c-0.389,2.88-1.04,5.089-1.96,6.661c-0.917,1.571-2.146,2.784-3.671,3.624c-1.525,0.824-3.315,1.246-5.382,1.246
				c-2.897,0-5.199-0.841-6.91-2.505c-1.727-1.681-2.581-3.827-2.581-6.488c0-1.618,0.186-3.704,0.575-6.242L304.752,254.811z"/>
			<path d="M332.757,287.079h-5.771l4.402-32.268h5.694l-0.342,2.565c1.246-1.196,2.412-2.02,3.501-2.488
				c1.073-0.468,2.289-0.684,3.641-0.684c3.113,0,5.571,1.153,7.392,3.455c1.834,2.302,2.737,4.963,2.737,8.01
				c0,2.319-0.575,4.545-1.744,6.661c-1.183,2.116-2.754,3.764-4.727,4.933c-1.963,1.196-4.017,1.774-6.146,1.774
				c-1.465,0-2.801-0.329-4.03-0.997c-1.229-0.671-2.226-1.634-3.003-2.893L332.757,287.079z M342.481,259.353
				c-1.398,0-2.611,0.329-3.671,0.967c-1.057,0.651-1.93,1.647-2.645,3.016c-0.701,1.355-1.056,2.737-1.056,4.169
				c0,1.85,0.528,3.345,1.585,4.481c1.076,1.136,2.491,1.711,4.233,1.711c2.04,0,3.767-0.761,5.182-2.272
				c1.415-1.525,2.13-3.485,2.13-5.897c0-1.85-0.542-3.342-1.601-4.478C345.547,259.914,344.179,259.353,342.481,259.353z"/>
			<path d="M375.217,271.521l5.089,2.628c-1.136,1.508-2.661,2.707-4.544,3.578c-1.88,0.871-3.983,1.309-6.286,1.309
				c-3.608,0-6.455-1.013-8.524-3.036c-2.07-2.036-3.113-4.714-3.113-8.073c0-3.827,1.306-7.079,3.89-9.74
				c2.598-2.644,5.741-3.983,9.411-3.983c2.209,0,4.186,0.482,5.93,1.445c1.727,0.983,3.079,2.382,4.076,4.233
				c1.01,1.854,1.508,3.873,1.508,6.039c0,0.684-0.077,1.475-0.216,2.395h-18.86c0.063,1.631,0.608,2.94,1.635,3.92
				c1.01,0.98,2.412,1.462,4.216,1.462C371.592,273.698,373.539,272.967,375.217,271.521z M376.682,264.067
				c-0.435-1.462-1.169-2.551-2.163-3.299c-1.03-0.747-2.242-1.103-3.674-1.103c-1.428,0-2.704,0.372-3.84,1.136
				c-1.153,0.761-2.023,1.85-2.601,3.265H376.682z"/>
			<path d="M387.851,254.811h5.166l-0.405,3.202c1.541-2.551,3.409-3.81,5.571-3.81c0.528,0,1.073,0.139,1.635,0.406l-2.116,5.272
				c-0.435-0.153-0.764-0.216-0.963-0.216c-1.136,0-2.166,0.638-3.036,1.943c-0.887,1.322-1.588,3.966-2.116,7.936l-1.136,8.883
				h-5.834L387.851,254.811z"/>
			<path d="M402.647,254.811h5.741l-3.189,23.617h-5.787L402.647,254.811z M406.617,245.148c0.993,0,1.834,0.342,2.535,1.06
				c0.701,0.684,1.043,1.538,1.043,2.518c0,0.996-0.342,1.837-1.043,2.538c-0.701,0.697-1.541,1.056-2.535,1.056
				c-0.983,0-1.82-0.359-2.521-1.056c-0.701-0.701-1.06-1.542-1.06-2.538c0-0.98,0.359-1.834,1.06-2.518
				C404.797,245.49,405.634,245.148,406.617,245.148z"/>
			<path d="M424.709,254.203c2.1,0,4,0.482,5.711,1.445c1.727,0.983,3.05,2.352,4.013,4.126c0.95,1.774,1.432,3.78,1.432,6.003
				c0,3.674-1.306,6.8-3.92,9.398c-2.631,2.568-5.867,3.86-9.74,3.86c-3.359,0-6.02-1.013-8.026-3.05
				c-2.007-2.023-2.99-4.684-2.99-7.983c0-3.967,1.339-7.249,4.046-9.864C417.942,255.509,421.101,254.203,424.709,254.203z
				 M424.304,259.682c-2.379,0-4.183,0.854-5.458,2.565c-1.246,1.698-1.9,3.531-1.9,5.525c0,1.774,0.528,3.173,1.558,4.262
				c1.04,1.09,2.412,1.618,4.136,1.618c2.445,0,4.295-0.807,5.571-2.458c1.292-1.648,1.93-3.515,1.93-5.631
				c0-1.744-0.545-3.159-1.634-4.233C427.417,260.24,426.031,259.682,424.304,259.682z"/>
			<path d="M441.187,254.811h5.183l-0.422,3.202c1.542-2.551,3.425-3.81,5.571-3.81c0.528,0,1.073,0.139,1.635,0.406l-2.103,5.272
				c-0.465-0.153-0.777-0.216-0.98-0.216c-1.136,0-2.129,0.638-3.033,1.943c-0.87,1.322-1.588,3.966-2.099,7.936l-1.136,8.883
				h-5.837L441.187,254.811z"/>
		</g>
		<g>
			<path d="M0.731,246.503h19.511l-0.701,5.678h-6.657l-3.595,26.248h-5.96l3.594-26.248H0L0.731,246.503z"/>
			<path d="M36.39,271.521l5.089,2.628c-1.12,1.508-2.644,2.707-4.544,3.578c-1.88,0.871-3.983,1.309-6.269,1.309
				c-3.611,0-6.458-1.013-8.541-3.036c-2.053-2.036-3.113-4.714-3.113-8.073c0-3.827,1.306-7.079,3.907-9.74
				c2.598-2.644,5.741-3.983,9.411-3.983c2.209,0,4.169,0.482,5.913,1.445c1.741,0.983,3.096,2.382,4.076,4.233
				c1.027,1.854,1.525,3.873,1.525,6.039c0,0.684-0.093,1.475-0.219,2.395H24.769c0.063,1.631,0.608,2.94,1.618,3.92
				c1.01,0.98,2.429,1.462,4.216,1.462C32.782,273.698,34.712,272.967,36.39,271.521z M37.868,264.067
				c-0.435-1.462-1.166-2.551-2.176-3.299c-1.013-0.747-2.226-1.103-3.674-1.103c-1.415,0-2.691,0.372-3.84,1.136
				c-1.153,0.761-2.01,1.85-2.598,3.265H37.868z"/>
			<path d="M71.943,259.682l-4.917,2.674c-1.385-1.757-3.252-2.644-5.584-2.644c-1.588,0-2.973,0.342-4.186,1.01
				c-1.212,0.671-2.196,1.651-2.91,2.91c-0.731,1.276-1.09,2.614-1.09,4.046c0,1.821,0.575,3.266,1.711,4.372
				c1.153,1.09,2.708,1.648,4.717,1.648c2.767,0,4.883-0.933,6.345-2.801l4.575,3.223c-1.306,1.538-2.894,2.754-4.824,3.608
				c-1.914,0.871-4.06,1.309-6.425,1.309c-3.671,0-6.581-1.013-8.697-3.036c-2.116-2.036-3.172-4.697-3.172-8.043
				c0-3.797,1.305-7.046,3.937-9.724c2.611-2.691,5.99-4.03,10.112-4.03C66.186,254.203,69.657,256.024,71.943,259.682z"/>
			<path d="M78.85,254.811h5.774l-0.326,2.395c2.223-2.006,4.528-3.003,6.907-3.003c2.053,0,3.734,0.655,5.027,1.943
				c1.305,1.292,1.96,2.927,1.96,4.903c0,0.917-0.126,2.302-0.375,4.153l-1.804,13.225h-5.787l1.774-12.913
				c0.169-1.322,0.249-2.335,0.249-3.003c0-0.963-0.266-1.681-0.811-2.192c-0.545-0.532-1.322-0.781-2.319-0.781
				c-0.98,0-1.96,0.329-2.923,1.013c-0.963,0.668-1.711,1.601-2.239,2.801c-0.532,1.196-1.013,3.438-1.448,6.72l-1.103,8.355h-5.791
				L78.85,254.811z"/>
			<path d="M116.16,254.203c2.086,0,4,0.482,5.711,1.445c1.727,0.983,3.066,2.352,4,4.126c0.963,1.774,1.432,3.78,1.432,6.003
				c0,3.674-1.309,6.8-3.923,9.398c-2.614,2.568-5.863,3.86-9.707,3.86c-3.379,0-6.036-1.013-8.043-3.05
				c-2.01-2.023-3.003-4.684-3.003-7.983c0-3.967,1.352-7.249,4.06-9.864C109.393,255.509,112.535,254.203,116.16,254.203z
				 M115.741,259.682c-2.365,0-4.169,0.854-5.448,2.565c-1.259,1.698-1.897,3.531-1.897,5.525c0,1.774,0.528,3.173,1.558,4.262
				c1.04,1.09,2.408,1.618,4.123,1.618c2.442,0,4.309-0.807,5.585-2.458c1.276-1.648,1.914-3.515,1.914-5.631
				c0-1.744-0.528-3.159-1.618-4.233C118.867,260.24,117.469,259.682,115.741,259.682z"/>
			<path d="M134.534,245.692h5.804l-4.495,32.736h-5.774L134.534,245.692z"/>
			<path d="M155.274,254.203c2.086,0,4.013,0.482,5.727,1.445c1.711,0.983,3.033,2.352,3.996,4.126
				c0.967,1.774,1.432,3.78,1.432,6.003c0,3.674-1.306,6.8-3.92,9.398c-2.631,2.568-5.867,3.86-9.74,3.86
				c-3.345,0-6.02-1.013-8.026-3.05c-1.993-2.023-3.003-4.684-3.003-7.983c0-3.967,1.352-7.249,4.059-9.864
				C148.523,255.509,151.666,254.203,155.274,254.203z M154.869,259.682c-2.362,0-4.183,0.854-5.445,2.565
				c-1.276,1.698-1.897,3.531-1.897,5.525c0,1.774,0.528,3.173,1.555,4.262c1.026,1.09,2.399,1.618,4.123,1.618
				c2.445,0,4.295-0.807,5.571-2.458c1.292-1.648,1.93-3.515,1.93-5.631c0-1.744-0.545-3.159-1.635-4.233
				C157.998,260.24,156.583,259.682,154.869,259.682z M158.683,242.022h7.016l-9.149,8.494h-4.262L158.683,242.022z"/>
			<path d="M190.734,254.811h5.817l-2.708,18.966c-0.512,3.717-1.04,6.192-1.585,7.388c-0.841,1.884-2.289,3.425-4.295,4.668
				c-2.023,1.229-4.545,1.854-7.578,1.854c-2.551,0-4.727-0.485-6.611-1.448c-1.867-0.963-3.282-2.209-4.216-3.717l5.086-2.614
				c1.525,1.571,3.501,2.365,5.927,2.365c1.432,0,2.661-0.249,3.688-0.764c1.027-0.498,1.854-1.183,2.412-2.053
				c0.578-0.857,0.997-2.133,1.216-3.827c-2.133,1.867-4.561,2.8-7.282,2.8c-1.9,0-3.641-0.468-5.246-1.402
				c-1.601-0.933-2.86-2.239-3.78-3.937c-0.9-1.694-1.369-3.578-1.369-5.648c0-2.316,0.592-4.511,1.807-6.564
				c1.196-2.04,2.83-3.671,4.883-4.87c2.053-1.213,4.233-1.804,6.472-1.804c1.372,0,2.614,0.263,3.704,0.794
				c1.12,0.545,2.209,1.415,3.269,2.674L190.734,254.811z M183.608,259.682c-2.163,0-3.97,0.731-5.462,2.206
				c-1.478,1.465-2.226,3.299-2.226,5.448c0,1.741,0.562,3.156,1.651,4.216c1.103,1.057,2.581,1.588,4.432,1.588
				c1.385,0,2.678-0.329,3.844-0.967c1.183-0.651,2.116-1.588,2.8-2.8c0.684-1.196,1.043-2.488,1.043-3.89
				c0-1.664-0.591-3.049-1.711-4.153C186.844,260.223,185.395,259.682,183.608,259.682z"/>
			<path d="M201.687,254.811h5.741l-3.173,23.617h-5.803L201.687,254.811z M205.653,245.148c0.996,0,1.837,0.342,2.551,1.06
				c0.684,0.684,1.043,1.538,1.043,2.518c0,0.996-0.359,1.837-1.043,2.538c-0.714,0.697-1.555,1.056-2.551,1.056
				c-0.963,0-1.821-0.359-2.521-1.056c-0.698-0.701-1.057-1.542-1.057-2.538c0-0.98,0.359-1.834,1.057-2.518
				C203.833,245.49,204.69,245.148,205.653,245.148z"/>
			<path d="M234.685,259.682l-4.9,2.674c-1.385-1.757-3.252-2.644-5.617-2.644c-1.572,0-2.957,0.342-4.169,1.01
				c-1.213,0.671-2.193,1.651-2.91,2.91c-0.731,1.276-1.103,2.614-1.103,4.046c0,1.821,0.575,3.266,1.727,4.372
				c1.136,1.09,2.707,1.648,4.714,1.648c2.767,0,4.884-0.933,6.348-2.801l4.558,3.223c-1.276,1.538-2.894,2.754-4.807,3.608
				c-1.93,0.871-4.063,1.309-6.412,1.309c-3.687,0-6.597-1.013-8.714-3.036c-2.116-2.036-3.173-4.697-3.173-8.043
				c0-3.797,1.306-7.046,3.92-9.724c2.631-2.691,5.99-4.03,10.113-4.03C228.928,254.203,232.399,256.024,234.685,259.682z"/>
			<path d="M252.219,254.203c2.103,0,4,0.482,5.711,1.445c1.727,0.983,3.066,2.352,4.016,4.126c0.947,1.774,1.428,3.78,1.428,6.003
				c0,3.674-1.305,6.8-3.933,9.398c-2.615,2.568-5.867,3.86-9.727,3.86c-3.359,0-6.036-1.013-8.026-3.05
				c-2.006-2.023-3.003-4.684-3.003-7.983c0-3.967,1.352-7.249,4.06-9.864C245.452,255.509,248.611,254.203,252.219,254.203z
				 M251.817,259.682c-2.382,0-4.186,0.854-5.462,2.565c-1.259,1.698-1.897,3.531-1.897,5.525c0,1.774,0.528,3.173,1.555,4.262
				c1.043,1.09,2.412,1.618,4.123,1.618c2.442,0,4.309-0.807,5.584-2.458c1.276-1.648,1.914-3.515,1.914-5.631
				c0-1.744-0.528-3.159-1.618-4.233C254.926,260.24,253.528,259.682,251.817,259.682z"/>
		</g>
		<g>
			<path d="M472.183,246.503h5.554c3.409,0,5.833,0.296,7.236,0.871c1.727,0.747,3.033,1.774,3.92,3.08
				c0.904,1.322,1.339,2.864,1.339,4.651c0,2.226-0.654,4.109-1.977,5.697c-1.306,1.601-3.299,2.691-5.96,3.312l6.957,14.315h-6.209
				l-6.814-13.94h-0.498l-1.93,13.94h-5.973L472.183,246.503z M476.445,259.26c3.253-0.016,5.355-0.342,6.348-1.01
				c0.967-0.655,1.465-1.651,1.465-2.957c0-0.764-0.203-1.385-0.591-1.9c-0.392-0.495-0.95-0.854-1.698-1.056
				c-0.731-0.203-2.255-0.296-4.528-0.296L476.445,259.26z"/>
			<path d="M496.052,254.811h5.741l-1.651,12.072c-0.169,1.339-0.262,2.332-0.262,2.987c0,1.06,0.355,1.93,1.086,2.631
				c0.734,0.714,1.681,1.073,2.834,1.073c1.492,0,2.628-0.452,3.439-1.385c0.794-0.904,1.398-2.754,1.774-5.554l1.618-11.823h5.741
				l-1.681,12.694c-0.405,2.88-1.056,5.089-1.99,6.661c-0.92,1.571-2.149,2.784-3.674,3.624c-1.508,0.824-3.299,1.246-5.365,1.246
				c-2.897,0-5.212-0.841-6.923-2.505c-1.698-1.681-2.568-3.827-2.568-6.488c0-1.618,0.203-3.704,0.575-6.242L496.052,254.811z"/>
			<path d="M522.688,254.811h5.8l-0.355,2.581c2.083-2.133,4.448-3.189,7.046-3.189c1.06,0,2.04,0.186,2.974,0.545
				c0.9,0.355,1.647,0.807,2.222,1.369c0.578,0.561,1.06,1.352,1.478,2.365c1.073-1.402,2.352-2.475,3.814-3.189
				c1.445-0.731,2.97-1.09,4.541-1.09c1.993,0,3.641,0.668,4.933,1.99c1.306,1.322,1.96,3.036,1.96,5.166
				c0,0.794-0.077,1.791-0.216,2.973l-1.96,14.096h-5.773l1.647-12.136c0.236-1.634,0.329-2.724,0.329-3.252
				c0-1.12-0.282-1.96-0.84-2.535c-0.562-0.578-1.339-0.874-2.349-0.874c-0.996,0-1.993,0.342-3.003,1.06
				c-1.013,0.684-1.774,1.618-2.319,2.801c-0.515,1.166-0.98,3.159-1.339,6.006l-1.229,8.93h-5.771l1.757-12.853
				c0.139-1.04,0.216-1.943,0.216-2.674c0-1.043-0.309-1.851-0.901-2.458c-0.591-0.591-1.369-0.904-2.352-0.904
				c-0.917,0-1.88,0.329-2.86,0.98c-0.98,0.638-1.744,1.511-2.289,2.631c-0.558,1.103-0.98,2.8-1.289,5.086l-1.339,10.192h-5.774
				L522.688,254.811z"/>
			<path d="M563.683,254.811h5.757l-3.189,23.617h-5.787L563.683,254.811z M567.682,245.148c0.98,0,1.821,0.342,2.518,1.06
				c0.701,0.684,1.06,1.538,1.06,2.518c0,0.996-0.359,1.837-1.06,2.538c-0.698,0.697-1.538,1.056-2.518,1.056
				c-0.996,0-1.837-0.359-2.551-1.056c-0.684-0.701-1.043-1.542-1.043-2.538c0-0.98,0.359-1.834,1.043-2.518
				C565.845,245.49,566.686,245.148,567.682,245.148z"/>
			<path d="M575.117,254.811h5.804l-0.326,2.395c2.209-2.006,4.511-3.003,6.907-3.003c2.04,0,3.721,0.655,5.01,1.943
				c1.309,1.292,1.963,2.927,1.963,4.903c0,0.917-0.126,2.302-0.375,4.153l-1.804,13.225h-5.787l1.774-12.913
				c0.186-1.322,0.249-2.335,0.249-3.003c0-0.963-0.266-1.681-0.81-2.192c-0.545-0.532-1.322-0.781-2.319-0.781
				c-0.98,0-1.943,0.329-2.924,1.013c-0.98,0.668-1.727,1.601-2.242,2.801c-0.512,1.196-1.01,3.438-1.432,6.72l-1.12,8.355h-5.771
				L575.117,254.811z M578.948,250.453l-1.867-3.578c1.276-0.824,2.362-1.385,3.266-1.681c0.887-0.296,1.774-0.435,2.678-0.435
				c0.668,0,1.571,0.156,2.644,0.452c1.728,0.482,2.94,0.714,3.641,0.714c1.212,0,2.518-0.355,3.873-1.103l1.804,3.359
				c-1.478,1.06-2.505,1.668-3.05,1.867c-0.87,0.329-1.757,0.485-2.628,0.485c-0.887,0-1.977-0.189-3.223-0.591
				c-1.027-0.312-1.664-0.498-1.943-0.562c-0.342-0.046-0.731-0.076-1.166-0.076C581.559,249.304,580.207,249.676,578.948,250.453z"
				/>
			<path d="M619.165,254.811h5.804l-3.299,23.617h-5.741l0.342-2.535c-1.246,1.182-2.441,1.99-3.531,2.458
				c-1.09,0.449-2.319,0.684-3.688,0.684c-3.126,0-5.618-1.136-7.452-3.455c-1.854-2.289-2.787-4.98-2.787-8.03
				c0-2.332,0.608-4.558,1.774-6.657c1.199-2.103,2.787-3.75,4.777-4.917c1.99-1.183,4.059-1.774,6.239-1.774
				c1.478,0,2.817,0.326,4.046,0.997c1.229,0.684,2.256,1.648,3.063,2.94L619.165,254.811z M610.451,273.87
				c1.432,0,2.678-0.312,3.734-0.95c1.06-0.638,1.963-1.635,2.678-3.003c0.731-1.339,1.09-2.721,1.09-4.153
				c0-1.867-0.545-3.362-1.635-4.515c-1.09-1.133-2.505-1.711-4.292-1.711c-2.056,0-3.83,0.764-5.262,2.289
				c-1.445,1.525-2.159,3.485-2.159,5.88c0,1.851,0.541,3.329,1.631,4.482C607.325,273.309,608.74,273.87,610.451,273.87z"/>
			<path d="M632.42,245.692h5.744l-1.558,11.514c2.209-2.006,4.528-3.003,6.91-3.003c2.053,0,3.734,0.655,5.04,1.943
				c1.309,1.292,1.96,2.927,1.96,4.903c0,0.917-0.123,2.302-0.372,4.153l-1.821,13.225h-5.774l1.761-12.913
				c0.169-1.322,0.263-2.335,0.263-3.003c0-0.963-0.263-1.681-0.807-2.192c-0.545-0.532-1.322-0.781-2.319-0.781
				c-0.967,0-1.946,0.329-2.91,1.013c-0.963,0.668-1.728,1.601-2.239,2.801c-0.532,1.196-1.013,3.438-1.432,6.737l-1.136,8.339
				h-5.804L632.42,245.692z"/>
			<path d="M657.907,254.811h5.741l-1.651,12.072c-0.169,1.339-0.262,2.332-0.262,2.987c0,1.06,0.372,1.93,1.09,2.631
				c0.714,0.714,1.664,1.073,2.83,1.073c1.495,0,2.631-0.452,3.439-1.385c0.811-0.904,1.402-2.754,1.774-5.554l1.618-11.823h5.741
				l-1.694,12.694c-0.405,2.88-1.06,5.089-1.976,6.661c-0.917,1.571-2.146,2.784-3.671,3.624c-1.511,0.824-3.315,1.246-5.368,1.246
				c-2.91,0-5.196-0.841-6.923-2.505c-1.711-1.681-2.568-3.827-2.568-6.488c0-1.618,0.186-3.704,0.561-6.242L657.907,254.811z"/>
			<path d="M683.749,254.811h5.741l-3.189,23.617h-5.774L683.749,254.811z M687.733,245.148c0.996,0,1.837,0.342,2.521,1.06
				c0.714,0.684,1.056,1.538,1.056,2.518c0,0.996-0.342,1.837-1.056,2.538c-0.684,0.697-1.525,1.056-2.521,1.056
				c-0.997,0-1.837-0.359-2.535-1.056c-0.701-0.701-1.043-1.542-1.043-2.538c0-0.98,0.342-1.834,1.043-2.518
				C685.895,245.49,686.736,245.148,687.733,245.148z"/>
		</g>
	</g>
</g>
</svg>